<mxfile host="app.diagrams.net" modified="2023-10-14T05:52:26.677Z" agent="Mozilla/5.0 (Macintosh; Intel Mac OS X 10_15_7) AppleWebKit/537.36 (KHTML, like Gecko) Chrome/117.0.0.0 Safari/537.36 Edg/117.0.2045.55" etag="A-raa7aRh9l2b4_Y2xnP" version="22.0.4" type="device">
  <diagram name="第 1 页" id="LMOtjRmqSTzVRUEMlwIw">
    <mxGraphModel dx="2716" dy="1740" grid="1" gridSize="10" guides="1" tooltips="1" connect="1" arrows="1" fold="1" page="1" pageScale="1" pageWidth="827" pageHeight="1169" math="0" shadow="0">
      <root>
        <mxCell id="0" />
        <mxCell id="1" parent="0" />
        <mxCell id="d5OkZ4V3D46FECshK5rA-1" value="Zone" style="swimlane;fontStyle=0;childLayout=stackLayout;horizontal=1;startSize=30;horizontalStack=0;resizeParent=1;resizeParentMax=0;resizeLast=0;collapsible=1;marginBottom=0;whiteSpace=wrap;html=1;" parent="1" vertex="1">
          <mxGeometry x="480" y="-415" width="100" height="90" as="geometry" />
        </mxCell>
        <mxCell id="d5OkZ4V3D46FECshK5rA-2" value="&lt;u&gt;id&lt;/u&gt;" style="text;strokeColor=none;fillColor=none;align=left;verticalAlign=middle;spacingLeft=4;spacingRight=4;overflow=hidden;points=[[0,0.5],[1,0.5]];portConstraint=eastwest;rotatable=0;whiteSpace=wrap;html=1;" parent="d5OkZ4V3D46FECshK5rA-1" vertex="1">
          <mxGeometry y="30" width="100" height="30" as="geometry" />
        </mxCell>
        <mxCell id="d5OkZ4V3D46FECshK5rA-3" value="name" style="text;strokeColor=none;fillColor=none;align=left;verticalAlign=middle;spacingLeft=4;spacingRight=4;overflow=hidden;points=[[0,0.5],[1,0.5]];portConstraint=eastwest;rotatable=0;whiteSpace=wrap;html=1;" parent="d5OkZ4V3D46FECshK5rA-1" vertex="1">
          <mxGeometry y="60" width="100" height="30" as="geometry" />
        </mxCell>
        <mxCell id="d5OkZ4V3D46FECshK5rA-5" value="Building" style="swimlane;fontStyle=0;childLayout=stackLayout;horizontal=1;startSize=30;horizontalStack=0;resizeParent=1;resizeParentMax=0;resizeLast=0;collapsible=1;marginBottom=0;whiteSpace=wrap;html=1;" parent="1" vertex="1">
          <mxGeometry x="160" y="-430" width="90" height="120" as="geometry" />
        </mxCell>
        <mxCell id="d5OkZ4V3D46FECshK5rA-6" value="&lt;u&gt;id&lt;/u&gt;" style="text;strokeColor=none;fillColor=none;align=left;verticalAlign=middle;spacingLeft=4;spacingRight=4;overflow=hidden;points=[[0,0.5],[1,0.5]];portConstraint=eastwest;rotatable=0;whiteSpace=wrap;html=1;" parent="d5OkZ4V3D46FECshK5rA-5" vertex="1">
          <mxGeometry y="30" width="90" height="30" as="geometry" />
        </mxCell>
        <mxCell id="d5OkZ4V3D46FECshK5rA-25" value="" style="endArrow=classic;html=1;rounded=0;exitX=1;exitY=0.5;exitDx=0;exitDy=0;entryX=0;entryY=0.5;entryDx=0;entryDy=0;" parent="d5OkZ4V3D46FECshK5rA-5" source="d5OkZ4V3D46FECshK5rA-22" edge="1">
          <mxGeometry width="50" height="50" relative="1" as="geometry">
            <mxPoint x="-130" y="80" as="sourcePoint" />
            <mxPoint y="50" as="targetPoint" />
          </mxGeometry>
        </mxCell>
        <mxCell id="d5OkZ4V3D46FECshK5rA-7" value="zone_id" style="text;strokeColor=none;fillColor=none;align=left;verticalAlign=middle;spacingLeft=4;spacingRight=4;overflow=hidden;points=[[0,0.5],[1,0.5]];portConstraint=eastwest;rotatable=0;whiteSpace=wrap;html=1;" parent="d5OkZ4V3D46FECshK5rA-5" vertex="1">
          <mxGeometry y="60" width="90" height="30" as="geometry" />
        </mxCell>
        <mxCell id="d5OkZ4V3D46FECshK5rA-8" value="height" style="text;strokeColor=none;fillColor=none;align=left;verticalAlign=middle;spacingLeft=4;spacingRight=4;overflow=hidden;points=[[0,0.5],[1,0.5]];portConstraint=eastwest;rotatable=0;whiteSpace=wrap;html=1;" parent="d5OkZ4V3D46FECshK5rA-5" vertex="1">
          <mxGeometry y="90" width="90" height="30" as="geometry" />
        </mxCell>
        <mxCell id="d5OkZ4V3D46FECshK5rA-9" value="buidling-zone" style="shape=rhombus;perimeter=rhombusPerimeter;whiteSpace=wrap;html=1;align=center;" parent="1" vertex="1">
          <mxGeometry x="310" y="-400" width="120" height="60" as="geometry" />
        </mxCell>
        <mxCell id="d5OkZ4V3D46FECshK5rA-13" value="" style="endArrow=none;html=1;rounded=0;exitX=0.986;exitY=0.001;exitDx=0;exitDy=0;exitPerimeter=0;entryX=0;entryY=0.5;entryDx=0;entryDy=0;" parent="1" source="d5OkZ4V3D46FECshK5rA-7" target="d5OkZ4V3D46FECshK5rA-9" edge="1">
          <mxGeometry relative="1" as="geometry">
            <mxPoint x="290" y="-370" as="sourcePoint" />
            <mxPoint x="450" y="-370" as="targetPoint" />
          </mxGeometry>
        </mxCell>
        <mxCell id="d5OkZ4V3D46FECshK5rA-15" value="" style="endArrow=none;html=1;rounded=0;entryX=0.059;entryY=0.567;entryDx=0;entryDy=0;entryPerimeter=0;exitX=0.995;exitY=0.125;exitDx=0;exitDy=0;exitPerimeter=0;" parent="1" source="d5OkZ4V3D46FECshK5rA-7" target="d5OkZ4V3D46FECshK5rA-9" edge="1">
          <mxGeometry relative="1" as="geometry">
            <mxPoint x="249.99999999999994" y="-360.00000000000006" as="sourcePoint" />
            <mxPoint x="318.46" y="-358.8" as="targetPoint" />
            <Array as="points" />
          </mxGeometry>
        </mxCell>
        <mxCell id="d5OkZ4V3D46FECshK5rA-17" value="" style="endArrow=classic;html=1;rounded=0;exitX=1;exitY=0.5;exitDx=0;exitDy=0;entryX=0;entryY=0.5;entryDx=0;entryDy=0;" parent="1" source="d5OkZ4V3D46FECshK5rA-9" target="d5OkZ4V3D46FECshK5rA-2" edge="1">
          <mxGeometry width="50" height="50" relative="1" as="geometry">
            <mxPoint x="350" y="-340" as="sourcePoint" />
            <mxPoint x="400" y="-390" as="targetPoint" />
          </mxGeometry>
        </mxCell>
        <mxCell id="d5OkZ4V3D46FECshK5rA-18" value="Floor" style="swimlane;fontStyle=0;childLayout=stackLayout;horizontal=1;startSize=30;horizontalStack=0;resizeParent=1;resizeParentMax=0;resizeLast=0;collapsible=1;marginBottom=0;whiteSpace=wrap;html=1;" parent="1" vertex="1">
          <mxGeometry x="-211" y="-430" width="140" height="120" as="geometry" />
        </mxCell>
        <mxCell id="d5OkZ4V3D46FECshK5rA-19" value="&lt;u&gt;id&lt;/u&gt;" style="text;strokeColor=none;fillColor=none;align=left;verticalAlign=middle;spacingLeft=4;spacingRight=4;overflow=hidden;points=[[0,0.5],[1,0.5]];portConstraint=eastwest;rotatable=0;whiteSpace=wrap;html=1;" parent="d5OkZ4V3D46FECshK5rA-18" vertex="1">
          <mxGeometry y="30" width="140" height="30" as="geometry" />
        </mxCell>
        <mxCell id="d5OkZ4V3D46FECshK5rA-20" value="building_id" style="text;strokeColor=none;fillColor=none;align=left;verticalAlign=middle;spacingLeft=4;spacingRight=4;overflow=hidden;points=[[0,0.5],[1,0.5]];portConstraint=eastwest;rotatable=0;whiteSpace=wrap;html=1;" parent="d5OkZ4V3D46FECshK5rA-18" vertex="1">
          <mxGeometry y="60" width="140" height="30" as="geometry" />
        </mxCell>
        <mxCell id="d5OkZ4V3D46FECshK5rA-21" value="number" style="text;strokeColor=none;fillColor=none;align=left;verticalAlign=middle;spacingLeft=4;spacingRight=4;overflow=hidden;points=[[0,0.5],[1,0.5]];portConstraint=eastwest;rotatable=0;whiteSpace=wrap;html=1;" parent="d5OkZ4V3D46FECshK5rA-18" vertex="1">
          <mxGeometry y="90" width="140" height="30" as="geometry" />
        </mxCell>
        <mxCell id="d5OkZ4V3D46FECshK5rA-22" value="floor-building" style="shape=rhombus;perimeter=rhombusPerimeter;whiteSpace=wrap;html=1;align=center;" parent="1" vertex="1">
          <mxGeometry x="-10" y="-410" width="120" height="60" as="geometry" />
        </mxCell>
        <mxCell id="d5OkZ4V3D46FECshK5rA-23" value="" style="endArrow=none;html=1;rounded=0;exitX=0.986;exitY=0.001;exitDx=0;exitDy=0;exitPerimeter=0;entryX=0;entryY=0.5;entryDx=0;entryDy=0;" parent="1" target="d5OkZ4V3D46FECshK5rA-22" edge="1">
          <mxGeometry relative="1" as="geometry">
            <mxPoint x="-71" y="-380" as="sourcePoint" />
            <mxPoint x="130" y="-380" as="targetPoint" />
          </mxGeometry>
        </mxCell>
        <mxCell id="d5OkZ4V3D46FECshK5rA-24" value="" style="endArrow=none;html=1;rounded=0;entryX=0.059;entryY=0.567;entryDx=0;entryDy=0;entryPerimeter=0;exitX=0.995;exitY=0.125;exitDx=0;exitDy=0;exitPerimeter=0;" parent="1" target="d5OkZ4V3D46FECshK5rA-22" edge="1">
          <mxGeometry relative="1" as="geometry">
            <mxPoint x="-70" y="-376" as="sourcePoint" />
            <mxPoint x="-1.5400000000000205" y="-368.8" as="targetPoint" />
            <Array as="points" />
          </mxGeometry>
        </mxCell>
        <mxCell id="d5OkZ4V3D46FECshK5rA-26" value="" style="endArrow=none;html=1;rounded=0;exitX=0.961;exitY=0.539;exitDx=0;exitDy=0;exitPerimeter=0;entryX=-0.002;entryY=0.752;entryDx=0;entryDy=0;entryPerimeter=0;" parent="1" source="d5OkZ4V3D46FECshK5rA-22" target="d5OkZ4V3D46FECshK5rA-6" edge="1">
          <mxGeometry width="50" height="50" relative="1" as="geometry">
            <mxPoint x="130" y="-360" as="sourcePoint" />
            <mxPoint x="150" y="-380" as="targetPoint" />
          </mxGeometry>
        </mxCell>
        <mxCell id="d5OkZ4V3D46FECshK5rA-36" value="Room" style="swimlane;fontStyle=0;childLayout=stackLayout;horizontal=1;startSize=30;horizontalStack=0;resizeParent=1;resizeParentMax=0;resizeLast=0;collapsible=1;marginBottom=0;whiteSpace=wrap;html=1;" parent="1" vertex="1">
          <mxGeometry x="-574" y="-420" width="140" height="180" as="geometry" />
        </mxCell>
        <mxCell id="d5OkZ4V3D46FECshK5rA-37" value="&lt;u&gt;id&lt;/u&gt;" style="text;strokeColor=none;fillColor=none;align=left;verticalAlign=middle;spacingLeft=4;spacingRight=4;overflow=hidden;points=[[0,0.5],[1,0.5]];portConstraint=eastwest;rotatable=0;whiteSpace=wrap;html=1;" parent="d5OkZ4V3D46FECshK5rA-36" vertex="1">
          <mxGeometry y="30" width="140" height="30" as="geometry" />
        </mxCell>
        <mxCell id="d5OkZ4V3D46FECshK5rA-38" value="floor_id" style="text;strokeColor=none;fillColor=none;align=left;verticalAlign=middle;spacingLeft=4;spacingRight=4;overflow=hidden;points=[[0,0.5],[1,0.5]];portConstraint=eastwest;rotatable=0;whiteSpace=wrap;html=1;" parent="d5OkZ4V3D46FECshK5rA-36" vertex="1">
          <mxGeometry y="60" width="140" height="30" as="geometry" />
        </mxCell>
        <mxCell id="d5OkZ4V3D46FECshK5rA-44" value="room_number" style="text;strokeColor=none;fillColor=none;align=left;verticalAlign=middle;spacingLeft=4;spacingRight=4;overflow=hidden;points=[[0,0.5],[1,0.5]];portConstraint=eastwest;rotatable=0;whiteSpace=wrap;html=1;" parent="d5OkZ4V3D46FECshK5rA-36" vertex="1">
          <mxGeometry y="90" width="140" height="30" as="geometry" />
        </mxCell>
        <mxCell id="d5OkZ4V3D46FECshK5rA-45" value="room_type" style="text;strokeColor=none;fillColor=none;align=left;verticalAlign=middle;spacingLeft=4;spacingRight=4;overflow=hidden;points=[[0,0.5],[1,0.5]];portConstraint=eastwest;rotatable=0;whiteSpace=wrap;html=1;" parent="d5OkZ4V3D46FECshK5rA-36" vertex="1">
          <mxGeometry y="120" width="140" height="30" as="geometry" />
        </mxCell>
        <mxCell id="d5OkZ4V3D46FECshK5rA-39" value="description" style="text;strokeColor=none;fillColor=none;align=left;verticalAlign=middle;spacingLeft=4;spacingRight=4;overflow=hidden;points=[[0,0.5],[1,0.5]];portConstraint=eastwest;rotatable=0;whiteSpace=wrap;html=1;" parent="d5OkZ4V3D46FECshK5rA-36" vertex="1">
          <mxGeometry y="150" width="140" height="30" as="geometry" />
        </mxCell>
        <mxCell id="d5OkZ4V3D46FECshK5rA-40" value="room-floor" style="shape=rhombus;perimeter=rhombusPerimeter;whiteSpace=wrap;html=1;align=center;" parent="1" vertex="1">
          <mxGeometry x="-373" y="-400" width="120" height="60" as="geometry" />
        </mxCell>
        <mxCell id="d5OkZ4V3D46FECshK5rA-41" value="" style="endArrow=none;html=1;rounded=0;exitX=0.986;exitY=0.001;exitDx=0;exitDy=0;exitPerimeter=0;entryX=0;entryY=0.5;entryDx=0;entryDy=0;" parent="1" target="d5OkZ4V3D46FECshK5rA-40" edge="1">
          <mxGeometry relative="1" as="geometry">
            <mxPoint x="-434" y="-370" as="sourcePoint" />
            <mxPoint x="-233" y="-370" as="targetPoint" />
          </mxGeometry>
        </mxCell>
        <mxCell id="d5OkZ4V3D46FECshK5rA-42" value="" style="endArrow=none;html=1;rounded=0;entryX=0.059;entryY=0.567;entryDx=0;entryDy=0;entryPerimeter=0;exitX=0.995;exitY=0.125;exitDx=0;exitDy=0;exitPerimeter=0;" parent="1" target="d5OkZ4V3D46FECshK5rA-40" edge="1">
          <mxGeometry relative="1" as="geometry">
            <mxPoint x="-433" y="-366" as="sourcePoint" />
            <mxPoint x="-364.54" y="-358.8" as="targetPoint" />
            <Array as="points" />
          </mxGeometry>
        </mxCell>
        <mxCell id="d5OkZ4V3D46FECshK5rA-46" value="" style="endArrow=classic;html=1;rounded=0;entryX=-0.005;entryY=0.962;entryDx=0;entryDy=0;exitX=1;exitY=0.5;exitDx=0;exitDy=0;entryPerimeter=0;" parent="1" source="d5OkZ4V3D46FECshK5rA-40" target="d5OkZ4V3D46FECshK5rA-19" edge="1">
          <mxGeometry width="50" height="50" relative="1" as="geometry">
            <mxPoint x="-320" y="-300" as="sourcePoint" />
            <mxPoint x="-270" y="-350" as="targetPoint" />
          </mxGeometry>
        </mxCell>
        <mxCell id="d5OkZ4V3D46FECshK5rA-48" value="" style="endArrow=none;html=1;rounded=0;exitX=0.977;exitY=0.531;exitDx=0;exitDy=0;exitPerimeter=0;entryX=-0.001;entryY=0.05;entryDx=0;entryDy=0;entryPerimeter=0;" parent="1" source="d5OkZ4V3D46FECshK5rA-40" target="d5OkZ4V3D46FECshK5rA-20" edge="1">
          <mxGeometry width="50" height="50" relative="1" as="geometry">
            <mxPoint x="-270" y="-340" as="sourcePoint" />
            <mxPoint x="-220" y="-390" as="targetPoint" />
          </mxGeometry>
        </mxCell>
        <mxCell id="d5OkZ4V3D46FECshK5rA-49" value="User" style="swimlane;fontStyle=0;childLayout=stackLayout;horizontal=1;startSize=30;horizontalStack=0;resizeParent=1;resizeParentMax=0;resizeLast=0;collapsible=1;marginBottom=0;whiteSpace=wrap;html=1;" parent="1" vertex="1">
          <mxGeometry x="-947" y="-30" width="140" height="150" as="geometry" />
        </mxCell>
        <mxCell id="d5OkZ4V3D46FECshK5rA-50" value="&lt;u&gt;id&lt;/u&gt;" style="text;strokeColor=none;fillColor=none;align=left;verticalAlign=middle;spacingLeft=4;spacingRight=4;overflow=hidden;points=[[0,0.5],[1,0.5]];portConstraint=eastwest;rotatable=0;whiteSpace=wrap;html=1;" parent="d5OkZ4V3D46FECshK5rA-49" vertex="1">
          <mxGeometry y="30" width="140" height="30" as="geometry" />
        </mxCell>
        <mxCell id="d5OkZ4V3D46FECshK5rA-51" value="username" style="text;strokeColor=none;fillColor=none;align=left;verticalAlign=middle;spacingLeft=4;spacingRight=4;overflow=hidden;points=[[0,0.5],[1,0.5]];portConstraint=eastwest;rotatable=0;whiteSpace=wrap;html=1;" parent="d5OkZ4V3D46FECshK5rA-49" vertex="1">
          <mxGeometry y="60" width="140" height="30" as="geometry" />
        </mxCell>
        <mxCell id="d5OkZ4V3D46FECshK5rA-53" value="password" style="text;strokeColor=none;fillColor=none;align=left;verticalAlign=middle;spacingLeft=4;spacingRight=4;overflow=hidden;points=[[0,0.5],[1,0.5]];portConstraint=eastwest;rotatable=0;whiteSpace=wrap;html=1;" parent="d5OkZ4V3D46FECshK5rA-49" vertex="1">
          <mxGeometry y="90" width="140" height="30" as="geometry" />
        </mxCell>
        <mxCell id="d5OkZ4V3D46FECshK5rA-52" value="role" style="text;strokeColor=none;fillColor=none;align=left;verticalAlign=middle;spacingLeft=4;spacingRight=4;overflow=hidden;points=[[0,0.5],[1,0.5]];portConstraint=eastwest;rotatable=0;whiteSpace=wrap;html=1;" parent="d5OkZ4V3D46FECshK5rA-49" vertex="1">
          <mxGeometry y="120" width="140" height="30" as="geometry" />
        </mxCell>
        <mxCell id="d5OkZ4V3D46FECshK5rA-54" value="Student" style="swimlane;fontStyle=0;childLayout=stackLayout;horizontal=1;startSize=30;horizontalStack=0;resizeParent=1;resizeParentMax=0;resizeLast=0;collapsible=1;marginBottom=0;whiteSpace=wrap;html=1;" parent="1" vertex="1">
          <mxGeometry x="-574" y="-50" width="140" height="210" as="geometry" />
        </mxCell>
        <mxCell id="d5OkZ4V3D46FECshK5rA-55" value="&lt;u&gt;student_id&lt;/u&gt;" style="text;strokeColor=none;fillColor=none;align=left;verticalAlign=middle;spacingLeft=4;spacingRight=4;overflow=hidden;points=[[0,0.5],[1,0.5]];portConstraint=eastwest;rotatable=0;whiteSpace=wrap;html=1;" parent="d5OkZ4V3D46FECshK5rA-54" vertex="1">
          <mxGeometry y="30" width="140" height="30" as="geometry" />
        </mxCell>
        <mxCell id="d5OkZ4V3D46FECshK5rA-56" value="user_id" style="text;strokeColor=none;fillColor=none;align=left;verticalAlign=middle;spacingLeft=4;spacingRight=4;overflow=hidden;points=[[0,0.5],[1,0.5]];portConstraint=eastwest;rotatable=0;whiteSpace=wrap;html=1;" parent="d5OkZ4V3D46FECshK5rA-54" vertex="1">
          <mxGeometry y="60" width="140" height="30" as="geometry" />
        </mxCell>
        <mxCell id="d5OkZ4V3D46FECshK5rA-57" value="name" style="text;strokeColor=none;fillColor=none;align=left;verticalAlign=middle;spacingLeft=4;spacingRight=4;overflow=hidden;points=[[0,0.5],[1,0.5]];portConstraint=eastwest;rotatable=0;whiteSpace=wrap;html=1;" parent="d5OkZ4V3D46FECshK5rA-54" vertex="1">
          <mxGeometry y="90" width="140" height="30" as="geometry" />
        </mxCell>
        <mxCell id="d5OkZ4V3D46FECshK5rA-58" value="sex" style="text;strokeColor=none;fillColor=none;align=left;verticalAlign=middle;spacingLeft=4;spacingRight=4;overflow=hidden;points=[[0,0.5],[1,0.5]];portConstraint=eastwest;rotatable=0;whiteSpace=wrap;html=1;" parent="d5OkZ4V3D46FECshK5rA-54" vertex="1">
          <mxGeometry y="120" width="140" height="30" as="geometry" />
        </mxCell>
        <mxCell id="d5OkZ4V3D46FECshK5rA-59" value="degree" style="text;strokeColor=none;fillColor=none;align=left;verticalAlign=middle;spacingLeft=4;spacingRight=4;overflow=hidden;points=[[0,0.5],[1,0.5]];portConstraint=eastwest;rotatable=0;whiteSpace=wrap;html=1;" parent="d5OkZ4V3D46FECshK5rA-54" vertex="1">
          <mxGeometry y="150" width="140" height="30" as="geometry" />
        </mxCell>
        <mxCell id="d5OkZ4V3D46FECshK5rA-60" value="major" style="text;strokeColor=none;fillColor=none;align=left;verticalAlign=middle;spacingLeft=4;spacingRight=4;overflow=hidden;points=[[0,0.5],[1,0.5]];portConstraint=eastwest;rotatable=0;whiteSpace=wrap;html=1;" parent="d5OkZ4V3D46FECshK5rA-54" vertex="1">
          <mxGeometry y="180" width="140" height="30" as="geometry" />
        </mxCell>
        <mxCell id="d5OkZ4V3D46FECshK5rA-63" value="user-student" style="shape=rhombus;perimeter=rhombusPerimeter;whiteSpace=wrap;html=1;align=center;" parent="1" vertex="1">
          <mxGeometry x="-746" y="-10" width="120" height="60" as="geometry" />
        </mxCell>
        <mxCell id="d5OkZ4V3D46FECshK5rA-66" value="" style="endArrow=none;html=1;rounded=0;exitX=1;exitY=0.5;exitDx=0;exitDy=0;" parent="1" source="d5OkZ4V3D46FECshK5rA-63" edge="1">
          <mxGeometry width="50" height="50" relative="1" as="geometry">
            <mxPoint x="-624" y="20" as="sourcePoint" />
            <mxPoint x="-574" y="20" as="targetPoint" />
          </mxGeometry>
        </mxCell>
        <mxCell id="d5OkZ4V3D46FECshK5rA-69" value="" style="endArrow=none;html=1;rounded=0;entryX=-0.003;entryY=0.415;entryDx=0;entryDy=0;entryPerimeter=0;exitX=0.968;exitY=0.541;exitDx=0;exitDy=0;exitPerimeter=0;" parent="1" source="d5OkZ4V3D46FECshK5rA-63" target="d5OkZ4V3D46FECshK5rA-56" edge="1">
          <mxGeometry width="50" height="50" relative="1" as="geometry">
            <mxPoint x="-754" y="50" as="sourcePoint" />
            <mxPoint x="-704" as="targetPoint" />
          </mxGeometry>
        </mxCell>
        <mxCell id="d5OkZ4V3D46FECshK5rA-70" value="" style="endArrow=classic;html=1;rounded=0;exitX=0;exitY=0.5;exitDx=0;exitDy=0;entryX=0.997;entryY=0.677;entryDx=0;entryDy=0;entryPerimeter=0;" parent="1" source="d5OkZ4V3D46FECshK5rA-63" target="d5OkZ4V3D46FECshK5rA-50" edge="1">
          <mxGeometry width="50" height="50" relative="1" as="geometry">
            <mxPoint x="-754" y="50" as="sourcePoint" />
            <mxPoint x="-704" as="targetPoint" />
          </mxGeometry>
        </mxCell>
        <mxCell id="d5OkZ4V3D46FECshK5rA-81" value="Faculty" style="swimlane;fontStyle=0;childLayout=stackLayout;horizontal=1;startSize=30;horizontalStack=0;resizeParent=1;resizeParentMax=0;resizeLast=0;collapsible=1;marginBottom=0;whiteSpace=wrap;html=1;" parent="1" vertex="1">
          <mxGeometry x="-1254" y="-5" width="140" height="120" as="geometry" />
        </mxCell>
        <mxCell id="d5OkZ4V3D46FECshK5rA-82" value="&lt;u&gt;faculty_id&lt;/u&gt;" style="text;strokeColor=none;fillColor=none;align=left;verticalAlign=middle;spacingLeft=4;spacingRight=4;overflow=hidden;points=[[0,0.5],[1,0.5]];portConstraint=eastwest;rotatable=0;whiteSpace=wrap;html=1;" parent="d5OkZ4V3D46FECshK5rA-81" vertex="1">
          <mxGeometry y="30" width="140" height="30" as="geometry" />
        </mxCell>
        <mxCell id="d5OkZ4V3D46FECshK5rA-83" value="user_id" style="text;strokeColor=none;fillColor=none;align=left;verticalAlign=middle;spacingLeft=4;spacingRight=4;overflow=hidden;points=[[0,0.5],[1,0.5]];portConstraint=eastwest;rotatable=0;whiteSpace=wrap;html=1;" parent="d5OkZ4V3D46FECshK5rA-81" vertex="1">
          <mxGeometry y="60" width="140" height="30" as="geometry" />
        </mxCell>
        <mxCell id="d5OkZ4V3D46FECshK5rA-84" value="name" style="text;strokeColor=none;fillColor=none;align=left;verticalAlign=middle;spacingLeft=4;spacingRight=4;overflow=hidden;points=[[0,0.5],[1,0.5]];portConstraint=eastwest;rotatable=0;whiteSpace=wrap;html=1;" parent="d5OkZ4V3D46FECshK5rA-81" vertex="1">
          <mxGeometry y="90" width="140" height="30" as="geometry" />
        </mxCell>
        <mxCell id="d5OkZ4V3D46FECshK5rA-86" value="faculty-user" style="shape=rhombus;perimeter=rhombusPerimeter;whiteSpace=wrap;html=1;align=center;" parent="1" vertex="1">
          <mxGeometry x="-1074" y="10" width="90" height="60" as="geometry" />
        </mxCell>
        <mxCell id="d5OkZ4V3D46FECshK5rA-87" value="" style="endArrow=none;html=1;rounded=0;exitX=1;exitY=0.5;exitDx=0;exitDy=0;entryX=0;entryY=0.5;entryDx=0;entryDy=0;" parent="1" source="d5OkZ4V3D46FECshK5rA-82" target="d5OkZ4V3D46FECshK5rA-86" edge="1">
          <mxGeometry relative="1" as="geometry">
            <mxPoint x="-1128" y="70" as="sourcePoint" />
            <mxPoint x="-927" y="70" as="targetPoint" />
          </mxGeometry>
        </mxCell>
        <mxCell id="d5OkZ4V3D46FECshK5rA-88" value="" style="endArrow=none;html=1;rounded=0;exitX=1.003;exitY=0.61;exitDx=0;exitDy=0;exitPerimeter=0;entryX=0.033;entryY=0.55;entryDx=0;entryDy=0;entryPerimeter=0;" parent="1" source="d5OkZ4V3D46FECshK5rA-82" target="d5OkZ4V3D46FECshK5rA-86" edge="1">
          <mxGeometry relative="1" as="geometry">
            <mxPoint x="-1127" y="74" as="sourcePoint" />
            <mxPoint x="-1074" y="40" as="targetPoint" />
            <Array as="points" />
          </mxGeometry>
        </mxCell>
        <mxCell id="d5OkZ4V3D46FECshK5rA-89" value="" style="endArrow=classic;html=1;rounded=0;exitX=1;exitY=0.5;exitDx=0;exitDy=0;entryX=-0.015;entryY=0.322;entryDx=0;entryDy=0;entryPerimeter=0;" parent="1" source="d5OkZ4V3D46FECshK5rA-86" target="d5OkZ4V3D46FECshK5rA-51" edge="1">
          <mxGeometry width="50" height="50" relative="1" as="geometry">
            <mxPoint x="-1014" y="140" as="sourcePoint" />
            <mxPoint x="-954" y="40" as="targetPoint" />
          </mxGeometry>
        </mxCell>
        <mxCell id="d5OkZ4V3D46FECshK5rA-91" value="Selection_Period" style="swimlane;fontStyle=0;childLayout=stackLayout;horizontal=1;startSize=30;horizontalStack=0;resizeParent=1;resizeParentMax=0;resizeLast=0;collapsible=1;marginBottom=0;whiteSpace=wrap;html=1;" parent="1" vertex="1">
          <mxGeometry x="-971.6800000000001" y="-370" width="140" height="120" as="geometry" />
        </mxCell>
        <mxCell id="d5OkZ4V3D46FECshK5rA-92" value="&lt;u&gt;id&lt;/u&gt;" style="text;strokeColor=none;fillColor=none;align=left;verticalAlign=middle;spacingLeft=4;spacingRight=4;overflow=hidden;points=[[0,0.5],[1,0.5]];portConstraint=eastwest;rotatable=0;whiteSpace=wrap;html=1;" parent="d5OkZ4V3D46FECshK5rA-91" vertex="1">
          <mxGeometry y="30" width="140" height="30" as="geometry" />
        </mxCell>
        <mxCell id="d5OkZ4V3D46FECshK5rA-93" value="start_time" style="text;strokeColor=none;fillColor=none;align=left;verticalAlign=middle;spacingLeft=4;spacingRight=4;overflow=hidden;points=[[0,0.5],[1,0.5]];portConstraint=eastwest;rotatable=0;whiteSpace=wrap;html=1;" parent="d5OkZ4V3D46FECshK5rA-91" vertex="1">
          <mxGeometry y="60" width="140" height="30" as="geometry" />
        </mxCell>
        <mxCell id="d5OkZ4V3D46FECshK5rA-94" value="end_time" style="text;strokeColor=none;fillColor=none;align=left;verticalAlign=middle;spacingLeft=4;spacingRight=4;overflow=hidden;points=[[0,0.5],[1,0.5]];portConstraint=eastwest;rotatable=0;whiteSpace=wrap;html=1;" parent="d5OkZ4V3D46FECshK5rA-91" vertex="1">
          <mxGeometry y="90" width="140" height="30" as="geometry" />
        </mxCell>
        <mxCell id="d5OkZ4V3D46FECshK5rA-95" value="Team" style="swimlane;fontStyle=0;childLayout=stackLayout;horizontal=1;startSize=30;horizontalStack=0;resizeParent=1;resizeParentMax=0;resizeLast=0;collapsible=1;marginBottom=0;whiteSpace=wrap;html=1;" parent="1" vertex="1">
          <mxGeometry x="-971.68" y="-188.86" width="140" height="120" as="geometry" />
        </mxCell>
        <mxCell id="d5OkZ4V3D46FECshK5rA-96" value="&lt;u&gt;id&lt;/u&gt;" style="text;strokeColor=none;fillColor=none;align=left;verticalAlign=middle;spacingLeft=4;spacingRight=4;overflow=hidden;points=[[0,0.5],[1,0.5]];portConstraint=eastwest;rotatable=0;whiteSpace=wrap;html=1;" parent="d5OkZ4V3D46FECshK5rA-95" vertex="1">
          <mxGeometry y="30" width="140" height="30" as="geometry" />
        </mxCell>
        <mxCell id="d5OkZ4V3D46FECshK5rA-97" value="team_name" style="text;strokeColor=none;fillColor=none;align=left;verticalAlign=middle;spacingLeft=4;spacingRight=4;overflow=hidden;points=[[0,0.5],[1,0.5]];portConstraint=eastwest;rotatable=0;whiteSpace=wrap;html=1;" parent="d5OkZ4V3D46FECshK5rA-95" vertex="1">
          <mxGeometry y="60" width="140" height="30" as="geometry" />
        </mxCell>
        <mxCell id="d5OkZ4V3D46FECshK5rA-98" value="leader_id" style="text;strokeColor=none;fillColor=none;align=left;verticalAlign=middle;spacingLeft=4;spacingRight=4;overflow=hidden;points=[[0,0.5],[1,0.5]];portConstraint=eastwest;rotatable=0;whiteSpace=wrap;html=1;" parent="d5OkZ4V3D46FECshK5rA-95" vertex="1">
          <mxGeometry y="90" width="140" height="30" as="geometry" />
        </mxCell>
        <mxCell id="d5OkZ4V3D46FECshK5rA-103" value="Teaming" style="shape=rhombus;perimeter=rhombusPerimeter;whiteSpace=wrap;html=1;align=center;" parent="1" vertex="1">
          <mxGeometry x="-781.68" y="-168.86" width="120" height="60" as="geometry" />
        </mxCell>
        <mxCell id="d5OkZ4V3D46FECshK5rA-104" value="" style="endArrow=none;html=1;rounded=0;exitX=0.982;exitY=0.504;exitDx=0;exitDy=0;entryX=0;entryY=0;entryDx=0;entryDy=0;exitPerimeter=0;" parent="1" source="d5OkZ4V3D46FECshK5rA-103" target="d5OkZ4V3D46FECshK5rA-54" edge="1">
          <mxGeometry width="50" height="50" relative="1" as="geometry">
            <mxPoint x="-648.68" y="-138.86" as="sourcePoint" />
            <mxPoint x="-625.9999999999997" y="-230.0000000000001" as="targetPoint" />
          </mxGeometry>
        </mxCell>
        <mxCell id="d5OkZ4V3D46FECshK5rA-105" value="" style="endArrow=none;html=1;rounded=0;entryX=0;entryY=0;entryDx=0;entryDy=0;exitX=1;exitY=0.5;exitDx=0;exitDy=0;" parent="1" source="d5OkZ4V3D46FECshK5rA-103" edge="1">
          <mxGeometry width="50" height="50" relative="1" as="geometry">
            <mxPoint x="-650" y="-130" as="sourcePoint" />
            <mxPoint x="-571.36" y="-50" as="targetPoint" />
          </mxGeometry>
        </mxCell>
        <mxCell id="d5OkZ4V3D46FECshK5rA-106" value="" style="endArrow=classic;html=1;rounded=0;exitX=0;exitY=0.5;exitDx=0;exitDy=0;entryX=1.007;entryY=0.683;entryDx=0;entryDy=0;entryPerimeter=0;" parent="1" source="d5OkZ4V3D46FECshK5rA-103" target="d5OkZ4V3D46FECshK5rA-96" edge="1">
          <mxGeometry width="50" height="50" relative="1" as="geometry">
            <mxPoint x="-778.68" y="-108.86000000000001" as="sourcePoint" />
            <mxPoint x="-821.68" y="-138.86" as="targetPoint" />
            <Array as="points">
              <mxPoint x="-811.68" y="-138.86" />
            </Array>
          </mxGeometry>
        </mxCell>
        <mxCell id="d5OkZ4V3D46FECshK5rA-108" value="favorite" style="shape=rhombus;perimeter=rhombusPerimeter;whiteSpace=wrap;html=1;align=center;" parent="1" vertex="1">
          <mxGeometry x="-564" y="-170" width="120" height="60" as="geometry" />
        </mxCell>
        <mxCell id="d5OkZ4V3D46FECshK5rA-112" value="" style="endArrow=classic;html=1;rounded=0;entryX=0.492;entryY=1.063;entryDx=0;entryDy=0;entryPerimeter=0;exitX=0.5;exitY=0;exitDx=0;exitDy=0;" parent="1" source="d5OkZ4V3D46FECshK5rA-108" target="d5OkZ4V3D46FECshK5rA-39" edge="1">
          <mxGeometry width="50" height="50" relative="1" as="geometry">
            <mxPoint x="-600" y="-70" as="sourcePoint" />
            <mxPoint x="-550" y="-120" as="targetPoint" />
          </mxGeometry>
        </mxCell>
        <mxCell id="d5OkZ4V3D46FECshK5rA-113" value="" style="endArrow=classic;html=1;rounded=0;exitX=0.5;exitY=1;exitDx=0;exitDy=0;" parent="1" source="d5OkZ4V3D46FECshK5rA-108" target="d5OkZ4V3D46FECshK5rA-54" edge="1">
          <mxGeometry width="50" height="50" relative="1" as="geometry">
            <mxPoint x="-600" y="-70" as="sourcePoint" />
            <mxPoint x="-550" y="-120" as="targetPoint" />
          </mxGeometry>
        </mxCell>
        <mxCell id="d5OkZ4V3D46FECshK5rA-114" value="Comment" style="swimlane;fontStyle=0;childLayout=stackLayout;horizontal=1;startSize=30;horizontalStack=0;resizeParent=1;resizeParentMax=0;resizeLast=0;collapsible=1;marginBottom=0;whiteSpace=wrap;html=1;" parent="1" vertex="1">
          <mxGeometry x="-220" y="-150" width="140" height="180" as="geometry" />
        </mxCell>
        <mxCell id="d5OkZ4V3D46FECshK5rA-115" value="id" style="text;strokeColor=none;fillColor=none;align=left;verticalAlign=middle;spacingLeft=4;spacingRight=4;overflow=hidden;points=[[0,0.5],[1,0.5]];portConstraint=eastwest;rotatable=0;whiteSpace=wrap;html=1;" parent="d5OkZ4V3D46FECshK5rA-114" vertex="1">
          <mxGeometry y="30" width="140" height="30" as="geometry" />
        </mxCell>
        <mxCell id="d5OkZ4V3D46FECshK5rA-116" value="student_id" style="text;strokeColor=none;fillColor=none;align=left;verticalAlign=middle;spacingLeft=4;spacingRight=4;overflow=hidden;points=[[0,0.5],[1,0.5]];portConstraint=eastwest;rotatable=0;whiteSpace=wrap;html=1;" parent="d5OkZ4V3D46FECshK5rA-114" vertex="1">
          <mxGeometry y="60" width="140" height="30" as="geometry" />
        </mxCell>
        <mxCell id="d5OkZ4V3D46FECshK5rA-117" value="room_id" style="text;strokeColor=none;fillColor=none;align=left;verticalAlign=middle;spacingLeft=4;spacingRight=4;overflow=hidden;points=[[0,0.5],[1,0.5]];portConstraint=eastwest;rotatable=0;whiteSpace=wrap;html=1;" parent="d5OkZ4V3D46FECshK5rA-114" vertex="1">
          <mxGeometry y="90" width="140" height="30" as="geometry" />
        </mxCell>
        <mxCell id="d5OkZ4V3D46FECshK5rA-118" value="content" style="text;strokeColor=none;fillColor=none;align=left;verticalAlign=middle;spacingLeft=4;spacingRight=4;overflow=hidden;points=[[0,0.5],[1,0.5]];portConstraint=eastwest;rotatable=0;whiteSpace=wrap;html=1;" parent="d5OkZ4V3D46FECshK5rA-114" vertex="1">
          <mxGeometry y="120" width="140" height="30" as="geometry" />
        </mxCell>
        <mxCell id="d5OkZ4V3D46FECshK5rA-119" value="parent_comment_id&lt;br&gt;" style="text;strokeColor=none;fillColor=none;align=left;verticalAlign=middle;spacingLeft=4;spacingRight=4;overflow=hidden;points=[[0,0.5],[1,0.5]];portConstraint=eastwest;rotatable=0;whiteSpace=wrap;html=1;" parent="d5OkZ4V3D46FECshK5rA-114" vertex="1">
          <mxGeometry y="150" width="140" height="30" as="geometry" />
        </mxCell>
        <mxCell id="d5OkZ4V3D46FECshK5rA-120" value="room-comment" style="shape=rhombus;perimeter=rhombusPerimeter;whiteSpace=wrap;html=1;align=center;" parent="1" vertex="1">
          <mxGeometry x="-350" y="-250" width="120" height="60" as="geometry" />
        </mxCell>
        <mxCell id="d5OkZ4V3D46FECshK5rA-121" value="student-comment" style="shape=rhombus;perimeter=rhombusPerimeter;whiteSpace=wrap;html=1;align=center;" parent="1" vertex="1">
          <mxGeometry x="-373" y="25" width="120" height="60" as="geometry" />
        </mxCell>
        <mxCell id="d5OkZ4V3D46FECshK5rA-124" value="" style="endArrow=none;html=1;rounded=0;exitX=1;exitY=0.5;exitDx=0;exitDy=0;entryX=0;entryY=0.5;entryDx=0;entryDy=0;" parent="1" source="d5OkZ4V3D46FECshK5rA-57" target="d5OkZ4V3D46FECshK5rA-121" edge="1">
          <mxGeometry relative="1" as="geometry">
            <mxPoint x="-434" y="44.709999999999994" as="sourcePoint" />
            <mxPoint x="-274" y="44.709999999999994" as="targetPoint" />
          </mxGeometry>
        </mxCell>
        <mxCell id="d5OkZ4V3D46FECshK5rA-125" value="" style="endArrow=none;html=1;rounded=0;entryX=0.475;entryY=1.009;entryDx=0;entryDy=0;entryPerimeter=0;exitX=1;exitY=0.5;exitDx=0;exitDy=0;" parent="1" source="d5OkZ4V3D46FECshK5rA-121" target="d5OkZ4V3D46FECshK5rA-119" edge="1">
          <mxGeometry relative="1" as="geometry">
            <mxPoint x="-250" y="60" as="sourcePoint" />
            <mxPoint x="-90" y="59.709999999999994" as="targetPoint" />
          </mxGeometry>
        </mxCell>
        <mxCell id="d5OkZ4V3D46FECshK5rA-126" value="" style="endArrow=none;html=1;rounded=0;exitX=1.001;exitY=0.012;exitDx=0;exitDy=0;exitPerimeter=0;entryX=0;entryY=0.5;entryDx=0;entryDy=0;" parent="1" source="d5OkZ4V3D46FECshK5rA-39" target="d5OkZ4V3D46FECshK5rA-120" edge="1">
          <mxGeometry relative="1" as="geometry">
            <mxPoint x="-440" y="-170" as="sourcePoint" />
            <mxPoint x="-280" y="-170" as="targetPoint" />
          </mxGeometry>
        </mxCell>
        <mxCell id="QymekG-ozI_IhF52nYka-1" value="" style="endArrow=none;html=1;rounded=0;exitX=1;exitY=0.5;exitDx=0;exitDy=0;entryX=0.5;entryY=0;entryDx=0;entryDy=0;" edge="1" parent="1" source="d5OkZ4V3D46FECshK5rA-120" target="d5OkZ4V3D46FECshK5rA-114">
          <mxGeometry relative="1" as="geometry">
            <mxPoint x="-420" y="-110" as="sourcePoint" />
            <mxPoint x="-260" y="-110" as="targetPoint" />
          </mxGeometry>
        </mxCell>
        <mxCell id="QymekG-ozI_IhF52nYka-2" value="parent_comment" style="shape=rhombus;perimeter=rhombusPerimeter;whiteSpace=wrap;html=1;align=center;" vertex="1" parent="1">
          <mxGeometry x="30" y="-60" width="120" height="60" as="geometry" />
        </mxCell>
        <mxCell id="QymekG-ozI_IhF52nYka-3" value="" style="endArrow=none;html=1;rounded=0;entryX=0.5;entryY=0;entryDx=0;entryDy=0;exitX=1.007;exitY=0.905;exitDx=0;exitDy=0;exitPerimeter=0;" edge="1" parent="1" target="QymekG-ozI_IhF52nYka-2" source="d5OkZ4V3D46FECshK5rA-116">
          <mxGeometry relative="1" as="geometry">
            <mxPoint x="-70" y="-80" as="sourcePoint" />
            <mxPoint x="74" as="targetPoint" />
          </mxGeometry>
        </mxCell>
        <mxCell id="QymekG-ozI_IhF52nYka-4" value="" style="endArrow=none;html=1;rounded=0;entryX=1.012;entryY=0.024;entryDx=0;entryDy=0;entryPerimeter=0;exitX=0.5;exitY=1;exitDx=0;exitDy=0;" edge="1" parent="1" source="QymekG-ozI_IhF52nYka-2" target="d5OkZ4V3D46FECshK5rA-119">
          <mxGeometry relative="1" as="geometry">
            <mxPoint x="-66" y="60" as="sourcePoint" />
            <mxPoint x="204" y="20" as="targetPoint" />
          </mxGeometry>
        </mxCell>
        <mxCell id="QymekG-ozI_IhF52nYka-5" value="" style="shape=table;startSize=0;container=1;collapsible=1;childLayout=tableLayout;fixedRows=1;rowLines=0;fontStyle=0;align=center;resizeLast=1;strokeColor=none;fillColor=none;collapsible=0;whiteSpace=wrap;html=1;" vertex="1" parent="1">
          <mxGeometry x="-70" y="-90" width="140" height="30" as="geometry" />
        </mxCell>
        <mxCell id="QymekG-ozI_IhF52nYka-6" value="" style="shape=tableRow;horizontal=0;startSize=0;swimlaneHead=0;swimlaneBody=0;fillColor=none;collapsible=0;dropTarget=0;points=[[0,0.5],[1,0.5]];portConstraint=eastwest;top=0;left=0;right=0;bottom=0;" vertex="1" parent="QymekG-ozI_IhF52nYka-5">
          <mxGeometry width="140" height="30" as="geometry" />
        </mxCell>
        <mxCell id="QymekG-ozI_IhF52nYka-7" value="" style="shape=partialRectangle;connectable=0;fillColor=none;top=0;left=0;bottom=0;right=0;editable=1;overflow=hidden;" vertex="1" parent="QymekG-ozI_IhF52nYka-6">
          <mxGeometry width="30" height="30" as="geometry">
            <mxRectangle width="30" height="30" as="alternateBounds" />
          </mxGeometry>
        </mxCell>
        <mxCell id="QymekG-ozI_IhF52nYka-8" value="comment_id" style="shape=partialRectangle;connectable=0;fillColor=none;top=0;left=0;bottom=0;right=0;align=left;spacingLeft=6;overflow=hidden;" vertex="1" parent="QymekG-ozI_IhF52nYka-6">
          <mxGeometry x="30" width="110" height="30" as="geometry">
            <mxRectangle width="110" height="30" as="alternateBounds" />
          </mxGeometry>
        </mxCell>
        <mxCell id="QymekG-ozI_IhF52nYka-9" value="" style="shape=table;startSize=0;container=1;collapsible=1;childLayout=tableLayout;fixedRows=1;rowLines=0;fontStyle=0;align=center;resizeLast=1;strokeColor=none;fillColor=none;collapsible=0;whiteSpace=wrap;html=1;" vertex="1" parent="1">
          <mxGeometry x="-71" width="181" height="30" as="geometry" />
        </mxCell>
        <mxCell id="QymekG-ozI_IhF52nYka-10" value="" style="shape=tableRow;horizontal=0;startSize=0;swimlaneHead=0;swimlaneBody=0;fillColor=none;collapsible=0;dropTarget=0;points=[[0,0.5],[1,0.5]];portConstraint=eastwest;top=0;left=0;right=0;bottom=0;" vertex="1" parent="QymekG-ozI_IhF52nYka-9">
          <mxGeometry width="181" height="30" as="geometry" />
        </mxCell>
        <mxCell id="QymekG-ozI_IhF52nYka-11" value="" style="shape=partialRectangle;connectable=0;fillColor=none;top=0;left=0;bottom=0;right=0;editable=1;overflow=hidden;" vertex="1" parent="QymekG-ozI_IhF52nYka-10">
          <mxGeometry width="30" height="30" as="geometry">
            <mxRectangle width="30" height="30" as="alternateBounds" />
          </mxGeometry>
        </mxCell>
        <mxCell id="QymekG-ozI_IhF52nYka-12" value="parent_comment_id" style="shape=partialRectangle;connectable=0;fillColor=none;top=0;left=0;bottom=0;right=0;align=left;spacingLeft=6;overflow=hidden;" vertex="1" parent="QymekG-ozI_IhF52nYka-10">
          <mxGeometry x="30" width="151" height="30" as="geometry">
            <mxRectangle width="151" height="30" as="alternateBounds" />
          </mxGeometry>
        </mxCell>
        <mxCell id="QymekG-ozI_IhF52nYka-32" value="" style="endArrow=none;html=1;rounded=0;exitX=0.959;exitY=0.522;exitDx=0;exitDy=0;entryX=0.465;entryY=0.009;entryDx=0;entryDy=0;exitPerimeter=0;entryPerimeter=0;" edge="1" parent="1" source="d5OkZ4V3D46FECshK5rA-120" target="d5OkZ4V3D46FECshK5rA-114">
          <mxGeometry relative="1" as="geometry">
            <mxPoint x="-220" y="-210" as="sourcePoint" />
            <mxPoint x="-140" y="-140" as="targetPoint" />
          </mxGeometry>
        </mxCell>
        <mxCell id="QymekG-ozI_IhF52nYka-36" value="selection" style="shape=rhombus;perimeter=rhombusPerimeter;whiteSpace=wrap;html=1;align=center;" vertex="1" parent="1">
          <mxGeometry x="-770" y="-280" width="120" height="60" as="geometry" />
        </mxCell>
        <mxCell id="QymekG-ozI_IhF52nYka-37" value="" style="endArrow=none;html=1;rounded=0;entryX=0;entryY=0.5;entryDx=0;entryDy=0;exitX=1;exitY=0;exitDx=0;exitDy=0;" edge="1" parent="1" target="QymekG-ozI_IhF52nYka-36" source="d5OkZ4V3D46FECshK5rA-95">
          <mxGeometry relative="1" as="geometry">
            <mxPoint x="-814" y="-185" as="sourcePoint" />
            <mxPoint x="-686.18" y="-285.29" as="targetPoint" />
          </mxGeometry>
        </mxCell>
        <mxCell id="QymekG-ozI_IhF52nYka-38" value="" style="endArrow=none;html=1;rounded=0;entryX=0;entryY=0.912;entryDx=0;entryDy=0;exitX=1;exitY=0.5;exitDx=0;exitDy=0;entryPerimeter=0;" edge="1" parent="1" source="QymekG-ozI_IhF52nYka-36" target="d5OkZ4V3D46FECshK5rA-44">
          <mxGeometry relative="1" as="geometry">
            <mxPoint x="-662.18" y="-270" as="sourcePoint" />
            <mxPoint x="-558" y="-310" as="targetPoint" />
          </mxGeometry>
        </mxCell>
        <mxCell id="QymekG-ozI_IhF52nYka-39" value="Personal" style="swimlane;fontStyle=0;childLayout=stackLayout;horizontal=1;startSize=30;horizontalStack=0;resizeParent=1;resizeParentMax=0;resizeLast=0;collapsible=1;marginBottom=0;whiteSpace=wrap;html=1;" vertex="1" parent="1">
          <mxGeometry x="-574" y="290" width="140" height="90" as="geometry" />
        </mxCell>
        <mxCell id="QymekG-ozI_IhF52nYka-40" value="student_id" style="text;strokeColor=none;fillColor=none;align=left;verticalAlign=middle;spacingLeft=4;spacingRight=4;overflow=hidden;points=[[0,0.5],[1,0.5]];portConstraint=eastwest;rotatable=0;whiteSpace=wrap;html=1;" vertex="1" parent="QymekG-ozI_IhF52nYka-39">
          <mxGeometry y="30" width="140" height="30" as="geometry" />
        </mxCell>
        <mxCell id="QymekG-ozI_IhF52nYka-41" value="information" style="text;strokeColor=none;fillColor=none;align=left;verticalAlign=middle;spacingLeft=4;spacingRight=4;overflow=hidden;points=[[0,0.5],[1,0.5]];portConstraint=eastwest;rotatable=0;whiteSpace=wrap;html=1;" vertex="1" parent="QymekG-ozI_IhF52nYka-39">
          <mxGeometry y="60" width="140" height="30" as="geometry" />
        </mxCell>
        <mxCell id="QymekG-ozI_IhF52nYka-43" value="personal_inforamtion" style="shape=rhombus;perimeter=rhombusPerimeter;whiteSpace=wrap;html=1;align=center;" vertex="1" parent="1">
          <mxGeometry x="-586" y="200" width="164" height="60" as="geometry" />
        </mxCell>
        <mxCell id="QymekG-ozI_IhF52nYka-44" value="" style="endArrow=none;html=1;rounded=0;exitX=0.49;exitY=0.986;exitDx=0;exitDy=0;entryX=0.5;entryY=0;entryDx=0;entryDy=0;exitPerimeter=0;" edge="1" parent="1" target="QymekG-ozI_IhF52nYka-43" source="d5OkZ4V3D46FECshK5rA-60">
          <mxGeometry relative="1" as="geometry">
            <mxPoint x="-520" y="230" as="sourcePoint" />
            <mxPoint x="-360" y="219.70999999999998" as="targetPoint" />
          </mxGeometry>
        </mxCell>
        <mxCell id="QymekG-ozI_IhF52nYka-45" value="" style="endArrow=none;html=1;rounded=0;entryX=0.5;entryY=0;entryDx=0;entryDy=0;exitX=0.5;exitY=1;exitDx=0;exitDy=0;" edge="1" parent="1" source="QymekG-ozI_IhF52nYka-43" target="QymekG-ozI_IhF52nYka-39">
          <mxGeometry relative="1" as="geometry">
            <mxPoint x="-336" y="235" as="sourcePoint" />
            <mxPoint x="-240" y="205" as="targetPoint" />
          </mxGeometry>
        </mxCell>
      </root>
    </mxGraphModel>
  </diagram>
</mxfile>
